<svg xmlns="http://www.w3.org/2000/svg" viewBox="0 0 48 48"><defs><style>.cls-1{fill:#d6edf6;}.cls-2{fill:none;stroke:#000;stroke-linejoin:round;stroke-width:0.81px;}</style></defs><title>Certificate-Stack-Full_blue</title><g id="Layer-Blue"><path class="cls-1" d="M41.33,19.58h0A26.48,26.48,0,0,1,23.48,32.79l-14.24,3a3.76,3.76,0,0,1-4.53-3.9h0A22.32,22.32,0,0,1,23.94,11L34.4,9.53A6.83,6.83,0,0,1,41.33,19.58Z"/></g><g id="Basic_Line" data-name="Basic Line"><g id="Stacks"><path class="cls-2" d="M36.43,39.09H4V16.32a.4.4,0,0,1,.4-.4H36.83V38.7A.39.39,0,0,1,36.43,39.09Z"/><polyline class="cls-2" points="7.62 15.92 7.62 12.5 40.45 12.5 40.45 35.67 36.83 35.67"/><polyline class="cls-2" points="11.17 12.5 11.17 8.91 44 8.91 44 32.08 40.95 32.08"/></g><polyline class="cls-2" points="29.84 31.65 29.84 34.91 27.59 33.54 25.32 34.91 25.32 31.45"/><circle class="cls-2" cx="27.51" cy="26.9" r="5.18"/><circle class="cls-2" cx="27.51" cy="26.9" r="3.48"/><line class="cls-2" x1="8.76" y1="24.86" x2="19.31" y2="24.86"/><line class="cls-2" x1="8.76" y1="27.99" x2="19.31" y2="27.99"/><line class="cls-2" x1="8.76" y1="31.42" x2="19.31" y2="31.42"/></g></svg>