<svg xmlns="http://www.w3.org/2000/svg" viewBox="0 0 48 48"><defs><style>.cls-1{fill:#d6edf6;}.cls-2{fill:none;stroke:#000;stroke-linejoin:round;stroke-width:0.81px;}</style></defs><title>Compass-Full_blue</title><g id="Layer-Blue"><path class="cls-1" d="M24,39.67c-8.79,0-16-13.41-16-22.2S15.2,7.84,24,7.84,39.7,19.5,39.7,28.29,32.78,39.67,24,39.67Z"/></g><g id="Basic_Line" data-name="Basic Line"><circle class="cls-2" cx="24" cy="26.84" r="14.35"/><path class="cls-2" d="M18.77,12.05a5.23,5.23,0,1,1,10.46,0"/><line class="cls-2" x1="24" y1="14.79" x2="24" y2="18.44"/><line class="cls-2" x1="35.93" y1="26.73" x2="32.29" y2="26.73"/><polygon class="cls-2" points="25.89 28.41 19.23 31.37 22.19 24.7 28.86 21.74 25.89 28.41"/><polyline class="cls-2" points="22.19 24.7 28.86 21.74 25.89 28.41"/><circle class="cls-2" cx="24.04" cy="26.55" r="1.2"/><line class="cls-2" x1="23.94" y1="38.59" x2="23.94" y2="34.95"/><line class="cls-2" x1="12" y1="26.66" x2="15.64" y2="26.66"/></g></svg>