<svg xmlns="http://www.w3.org/2000/svg" viewBox="0 0 48 48"><defs><style>.cls-1{fill:#d6edf6;}.cls-2{fill:none;stroke:#000;stroke-linejoin:round;stroke-width:0.81px;}</style></defs><title>Globe-Africa_blue</title><g id="Layer-Blue"><path class="cls-1" d="M29.44,12.91c2.35,2.15,6,2.27,8.47,4.17,3.16,2.41,3.42,7.79,2.59,11.39-1.07,4.67-4.25,8.65-9,9.89C24.31,40.24,16,36.64,11,31.38,7.5,27.7,5.41,22.52,6.13,17.51,8.09,3.8,21.09,5.29,29.44,12.91Z"/></g><g id="Basic_Line" data-name="Basic Line"><circle class="cls-2" cx="24" cy="24" r="19.65"/><path class="cls-2" d="M30.68,6.24l-6.34,3L22.93,11.5l1.41,2.29h3.08v5.12l-5.65.89-1.71-1.68S8.31,15.74,12.18,28.74l4.4.71,1.71.63.9,2,1.47,2.17-.43,2.86,1,2.93.52,1.88h3.38L28,40.05l.6-2.93,3.08-2-1.48-2.58,3.95-4.7.42-1.8-2.29.2L31.1,24.42l-.69-1.71-.2-1.84,2.08-1.07h3.48l3.43-3.05,1.25-3.16"/></g></svg>