<svg id="Layer-Blue" xmlns="http://www.w3.org/2000/svg" viewBox="0 0 48 48"><defs><style>.cls-1{fill:#d6edf6;}.cls-2{fill:none;stroke:#000;stroke-linejoin:round;stroke-width:0.81px;}</style></defs><title>Money-Currency-Agnostic</title><path class="cls-1" d="M22.74,37.46c-8.79,0-16-13.41-16-22.2s7.17-9.64,16-9.64S38.45,17.28,38.45,26.07,31.53,37.46,22.74,37.46Z"/><g id="Money_-_Alt" data-name="Money - Alt"><polyline class="cls-2" points="30.87 33.84 5.13 33.84 5.13 13.81 38.52 13.81 38.52 24.05"/><path class="cls-2" d="M5.29,29a5,5,0,0,1,5,5"/><path class="cls-2" d="M10.3,14.09a5,5,0,0,1-5,5"/><path class="cls-2" d="M38.61,19.1a5,5,0,0,1-5-5"/></g><circle class="cls-2" cx="22" cy="24.26" r="4.91"/><g id="Money"><path class="cls-2" d="M38.22,24a7.1,7.1,0,1,1-.5,0l.5,0"/><polyline class="cls-2" points="41.49 28.53 37.1 33.34 34.33 30.94"/></g></svg>